<svg xmlns="http://www.w3.org/2000/svg" viewBox="0 0 1280 720" role="img" aria-labelledby="title desc">
  <title id="title">Cosmic Diner showcase placeholder two</title>
  <desc id="desc">Placeholder for a blackout gameplay screenshot.</desc>
  <rect width="1280" height="720" fill="#030200"/>
  <g stroke="#f59e0b" stroke-opacity=".12">
    <path d="M0 80h1280M0 160h1280M0 240h1280M0 320h1280M0 400h1280M0 480h1280M0 560h1280M0 640h1280"/>
    <path d="M80 0v720M160 0v720M240 0v720M320 0v720M400 0v720M480 0v720M560 0v720M640 0v720M720 0v720M800 0v720M880 0v720M960 0v720M1040 0v720M1120 0v720M1200 0v720"/>
  </g>
  <g fill="none" stroke="#f59e0b" stroke-width="5" opacity=".6">
    <path d="M180 570 410 190h460l230 380"/>
    <path d="M360 570h560"/>
    <circle cx="640" cy="340" r="118"/>
    <path d="m640 235 34 70 77 11-56 55 13 77-68-36-68 36 13-77-56-55 77-11z"/>
  </g>
  <text x="640" y="100" text-anchor="middle" fill="#f59e0b" font-family="monospace" font-size="26" letter-spacing="7">SCREENSHOT SLOT 02</text>
  <text x="640" y="660" text-anchor="middle" fill="#806f4f" font-family="monospace" font-size="18" letter-spacing="4">BLACKOUT / POWER FAILURE</text>
</svg>
