<svg xmlns="http://www.w3.org/2000/svg" viewBox="0 0 1600 900" role="img" aria-labelledby="title desc">
  <title id="title">Cosmic Diner hero placeholder</title>
  <desc id="desc">Retro terminal placeholder for a future gameplay screenshot.</desc>
  <rect width="1600" height="900" fill="#000"/>
  <g stroke="#39ff14" stroke-opacity=".12">
    <path d="M0 100h1600M0 200h1600M0 300h1600M0 400h1600M0 500h1600M0 600h1600M0 700h1600M0 800h1600"/>
    <path d="M100 0v900M200 0v900M300 0v900M400 0v900M500 0v900M600 0v900M700 0v900M800 0v900M900 0v900M1000 0v900M1100 0v900M1200 0v900M1300 0v900M1400 0v900M1500 0v900"/>
  </g>
  <g fill="none" stroke="#39ff14" stroke-width="4" opacity=".42">
    <path d="M120 690 410 430h780l290 260"/>
    <path d="M260 690V520h1080v170"/>
    <path d="M420 520v170M620 520v170M980 520v170M1180 520v170"/>
    <circle cx="800" cy="330" r="92"/>
    <path d="M740 330h120M800 270v120"/>
  </g>
  <text x="800" y="110" text-anchor="middle" fill="#39ff14" font-family="monospace" font-size="28" letter-spacing="8">COSMIC DINER // HERO CAPTURE</text>
  <text x="800" y="820" text-anchor="middle" fill="#f59e0b" font-family="monospace" font-size="20" letter-spacing="5">REPLACE WITH FINAL GAMEPLAY IMAGE</text>
</svg>
