<svg xmlns="http://www.w3.org/2000/svg" viewBox="0 0 1280 720" role="img" aria-labelledby="title desc">
  <title id="title">Cosmic Diner showcase placeholder one</title>
  <desc id="desc">Placeholder for a diner interior gameplay screenshot.</desc>
  <rect width="1280" height="720" fill="#010401"/>
  <g stroke="#39ff14" stroke-opacity=".14">
    <path d="M0 80h1280M0 160h1280M0 240h1280M0 320h1280M0 400h1280M0 480h1280M0 560h1280M0 640h1280"/>
    <path d="M80 0v720M160 0v720M240 0v720M320 0v720M400 0v720M480 0v720M560 0v720M640 0v720M720 0v720M800 0v720M880 0v720M960 0v720M1040 0v720M1120 0v720M1200 0v720"/>
  </g>
  <g fill="none" stroke="#39ff14" stroke-width="5" opacity=".58">
    <path d="M150 550h980M240 550V290h800v260"/>
    <path d="M320 360h160v110H320zM800 360h160v110H800z"/>
    <path d="M540 550V340h200v210"/>
    <path d="M600 260h80M640 220v80"/>
  </g>
  <text x="640" y="100" text-anchor="middle" fill="#39ff14" font-family="monospace" font-size="26" letter-spacing="7">SCREENSHOT SLOT 01</text>
  <text x="640" y="660" text-anchor="middle" fill="#6f806f" font-family="monospace" font-size="18" letter-spacing="4">DINER INTERIOR / ARRIVAL</text>
</svg>
